# The units used in this file are centimeters.
v -0.652414 3.219804 -0.245012
v 1.710025 1.208372 2.556486
v -0.652414 6.859693 -0.245012
v 1.710025 8.947146 2.556486
v -0.652414 6.859693 -2.921164
v 1.710025 8.947146 -5.722662
v -0.652414 3.219804 -2.921164
v 1.710025 1.208372 -5.722662
vt 0.375000 0.000000
vt 0.625000 0.000000
vt 0.375000 0.250000
vt 0.625000 0.250000
vt 0.375000 0.500000
vt 0.625000 0.500000
vt 0.375000 0.750000
vt 0.625000 0.750000
vt 0.375000 1.000000
vt 0.625000 1.000000
vt 0.875000 0.000000
vt 0.875000 0.250000
vt 0.125000 0.000000
vt 0.125000 0.250000
vn -0.764470 0.000000 0.644660
vn -0.764470 0.000000 0.644660
vn -0.764470 0.000000 0.644660
vn -0.764470 0.000000 0.644660
vn -0.662147 0.749374 0.000000
vn -0.662147 0.749374 0.000000
vn -0.662147 0.749374 0.000000
vn -0.662147 0.749374 0.000000
vn -0.764470 0.000000 -0.644660
vn -0.764470 0.000000 -0.644660
vn -0.764470 0.000000 -0.644660
vn -0.764470 0.000000 -0.644660
vn -0.648277 -0.761405 0.000000
vn -0.648277 -0.761405 0.000000
vn -0.648277 -0.761405 0.000000
vn -0.648277 -0.761405 0.000000
vn 1.000000 0.000000 0.000000
vn 1.000000 0.000000 0.000000
vn 1.000000 0.000000 0.000000
vn 1.000000 0.000000 0.000000
vn -1.000000 0.000000 0.000000
vn -1.000000 0.000000 0.000000
vn -1.000000 0.000000 0.000000
vn -1.000000 0.000000 0.000000
s off
f 1/1/1 2/2/2 4/4/3 3/3/4
f 3/3/5 4/4/6 6/6/7 5/5/8
f 5/5/9 6/6/10 8/8/11 7/7/12
f 7/7/13 8/8/14 2/10/15 1/9/16
f 2/2/17 8/11/18 6/12/19 4/4/20
f 7/13/21 1/1/22 3/3/23 5/14/24
